# xmcd
#
# Track frame offsets:
#	150
#	17758
#	33028
#	49665
#	62634
#	79706
#	95420
#	112609
#	130856
#	144954
#	164505
#	182332
#	207250
#	225545
#	246647
#
# Disc length: 3588 seconds
#
# Revision: 1
# Processed by: cddbd v1.5.2PL0 Copyright (c) Steve Scherf et al.
# Submitted via: audiograbber 1.83.01
#
DISCID=b80e020f
DTITLE=Motionless in white - Creatures
DYEAR=2012
DGENRE=Rock
TTITLE0=Immaculate misconception
TTITLE1=We only come out at night
TTITLE2=London in terror
TTITLE3=Abigail
TTITLE4=Creatures
TTITLE5=Cobwebs
TTITLE6=Com Pt. II
TTITLE7=Count Choculitis
TTITLE8=City Lights
TTITLE9=Puppets (The first snow)
TTITLE10=Undead ahead
TTITLE11=Scissorhands (The last snow)
TTITLE12=Dragula
TTITLE13=Creatures (Beauty remix by Celldweller)
TTITLE14=Mallevs Maledicarvm (Remix by Tim Skold)
EXTD=
EXTT0=
EXTT1=
EXTT2=
EXTT3=
EXTT4=
EXTT5=
EXTT6=
EXTT7=
EXTT8=
EXTT9=
EXTT10=
EXTT11=
EXTT12=
EXTT13=
EXTT14=
PLAYORDER=
